<?xml version="1.0" encoding="UTF-8" standalone="no"?>
<!-- Created with Inkscape (http://www.inkscape.org/) -->

<svg
   width="210mm"
   height="297mm"
   viewBox="0 0 210 297"
   version="1.1"
   id="svg64388"
   inkscape:version="1.2.1 (9c6d41e410, 2022-07-14)"
   sodipodi:docname="fungi-kingdom-icon.svg"
   xmlns:inkscape="http://www.inkscape.org/namespaces/inkscape"
   xmlns:sodipodi="http://sodipodi.sourceforge.net/DTD/sodipodi-0.dtd"
   xmlns="http://www.w3.org/2000/svg"
   xmlns:svg="http://www.w3.org/2000/svg">
  <sodipodi:namedview
     id="namedview64390"
     pagecolor="#ffffff"
     bordercolor="#000000"
     borderopacity="0.25"
     inkscape:showpageshadow="2"
     inkscape:pageopacity="0.0"
     inkscape:pagecheckerboard="0"
     inkscape:deskcolor="#d1d1d1"
     inkscape:document-units="mm"
     showgrid="false"
     inkscape:zoom="0.30420642"
     inkscape:cx="156.14397"
     inkscape:cy="392.82537"
     inkscape:window-width="1366"
     inkscape:window-height="650"
     inkscape:window-x="0"
     inkscape:window-y="32"
     inkscape:window-maximized="1"
     inkscape:current-layer="layer1" />
  <defs
     id="defs64385" />
  <g
     inkscape:label="Layer 1"
     inkscape:groupmode="layer"
     id="layer1">
    <g
       id="g64914"
       transform="matrix(1.0112328,0,0,1.0112328,-0.72177559,-0.63330293)">
      <circle
         style="fill:#7a5472;fill-opacity:1;stroke:#f8fafb;stroke-width:1.56167;stroke-linejoin:bevel;stroke-dasharray:none;stroke-opacity:1;stop-color:#000000"
         id="path42078-2-8"
         cx="90.420464"
         cy="82.544189"
         r="25.383598" />
      <g
         id="g49387"
         transform="matrix(0.75386311,0,0,0.75386311,51.758013,-200.29631)">
        <path
           style="fill:#e4dada;stroke-width:0.264583"
           d="m 48.59348,408.68592 c -2.408502,-0.48776 -6.817314,-1.37092 -8.60082,-2.46921 0.0869,-0.14053 -0.47532,-1.00237 -1.24927,-1.91519 -7.0802,-8.3506 -9.65299,-17.46498 -7.8715,-27.88556 0.29406,-1.72007 0.6306,-3.22335 0.74786,-3.34061 0.11726,-0.11726 1.07451,-0.0655 2.12723,0.11502 1.73425,0.29739 1.8992,0.37882 1.75617,0.86692 -1.01725,3.47139 -1.29449,5.49236 -1.28984,9.40225 0.004,3.37613 0.10665,4.47519 0.58063,6.21771 0.73043,2.68535 2.28807,5.95005 4.07217,8.53502 1.71382,2.48313 5.74922,6.53984 8.61737,8.66289 1.91534,1.41777 2.56015,2.05552 1.9699,1.94835 -0.10914,-0.0198 -0.4961,-0.0817 -0.8599,-0.13755 z m 6.51985,-6.496 c -0.39114,-3.68053 -0.70844,-6.94443 -0.70509,-7.25311 0.005,-0.47266 0.21535,-0.58898 1.33221,-0.73714 0.72938,-0.0968 1.48582,-0.2372 1.68098,-0.31209 0.27503,-0.10553 0.42674,0.59591 0.67445,3.1184 0.17579,1.79001 0.54535,5.03567 0.82125,7.21258 0.27589,2.17691 0.44964,4.01001 0.3861,4.07355 -0.30673,0.30673 -2.91078,0.53905 -3.00272,0.26789 -0.0689,-0.20324 -0.15448,-0.19843 -0.28709,0.0161 -0.1039,0.16812 -0.50894,-2.70567 -0.90009,-6.38621 z m 4.76082,5.95931 c 0.951,-0.68295 3.49858,-6.08157 4.97722,-10.5473 0.79791,-2.40983 2.26294,-8.51046 2.26294,-9.42327 0,-0.16473 -0.27205,0.10506 -0.60457,0.59952 -0.33252,0.49447 -1.01769,1.09457 -1.52261,1.33358 -2.79484,1.32292 -11.01373,2.20281 -14.6815,1.57176 -3.6975,-0.63617 -6.12681,-2.35924 -6.87412,-4.87572 -0.78974,-2.65933 -0.28303,-5.03377 1.61223,-7.55503 1.14908,-1.52862 1.30441,-1.63447 3.36937,-2.29595 7.32177,-2.34545 15.92835,0.14707 18.34232,5.31205 0.34006,0.72761 0.62701,1.62058 0.63765,1.98438 0.0185,0.63192 0.0295,0.63634 0.24656,0.0988 0.46599,-1.15398 0.86592,-10.00917 0.68678,-15.20625 l -0.17875,-5.18554 2.45129,-0.15882 c 1.34821,-0.0873 2.49776,-0.11233 2.55456,-0.0555 0.0568,0.0568 0.22411,2.10457 0.3718,4.55061 0.19081,3.16023 0.18043,6.09365 -0.0358,10.13587 -0.49969,9.33932 -1.64499,15.99042 -3.91818,22.75417 -0.66025,1.96453 -1.20536,3.71157 -1.21135,3.88231 -3.03257,1.65289 -4.705921,2.23823 -8.25709,3.15838 -0.31227,0.0812 -0.40602,0.0492 -0.22871,-0.0781 z M 41.44973,371.91629 c -0.3638,-0.0551 -1.55443,-0.23125 -2.64583,-0.39151 -6.53116,-0.95904 -11.4957,-4.05 -12.59865,-7.84401 -1.06392,-3.65974 0.79824,-8.24891 4.34715,-10.7133 1.20685,-0.83805 1.31086,-0.86037 3.88587,-0.83399 8.01691,0.0822 14.4741,5.70887 14.443,12.58546 -0.0137,3.03335 -0.99342,5.27058 -2.93545,6.70337 -0.77217,0.56969 -2.64013,0.77491 -4.49609,0.49398 z m 24.99425,-10.79998 c -7.10484,-1.10443 -10.75518,-4.09052 -10.75236,-8.79576 0.002,-2.7129 0.77955,-4.50752 2.9326,-6.76536 1.62357,-1.70259 1.90017,-1.88219 3.47342,-2.25536 2.14546,-0.5089 5.638884,-0.66362 6.654571,-0.6365 2.444924,-0.0467 4.913958,0.67513 6.867099,1.95339 3.419252,2.33857 7.751132,6.13642 7.89556,10.05376 -0.09866,2.72 -1.180178,4.0192 -3.06442,6.12293 l -2.36857,0.33543 c -2.99621,0.4243 -8.86854,0.418 -11.63787,-0.0125 z"
           id="path49313"
           sodipodi:nodetypes="ccssssssssssscscssssssssscssssssssssssccsscsccccssssssssscssccccsss" />
        <path
           style="fill:#ccc3c3;stroke-width:0.264583"
           d="m 52.29608,405.75064 c -0.18113,-1.70987 -0.52368,-4.89479 -0.76124,-7.0776 l -0.43192,-3.96875 -3.04065,-0.16265 c -4.71224,-0.25207 -7.35331,-1.50516 -8.61724,-4.08854 -1.29708,-2.65113 -0.72841,-6.12328 1.43217,-8.74444 0.82066,-0.9956 3.10103,-2.80058 4.36202,-3.45266 0.87564,-0.45281 0.83944,-0.35411 -0.52978,1.44438 -2.20379,2.89471 -2.16195,7.11887 0.0935,9.44125 2.05495,2.11591 5.34045,2.95051 10.66205,2.70844 3.42323,-0.15572 7.90857,-0.97454 9.52213,-1.73831 0.50492,-0.23901 1.19009,-0.83911 1.52261,-1.33358 0.75574,-1.12381 0.75312,-1.00356 -0.0624,2.85912 -1.10369,5.22736 -3.18262,10.94066 -5.37306,14.76623 -0.90548,1.5814 -1.61548,2.26519 -1.64862,1.58777 -0.009,-0.17733 -0.10886,-0.88797 -0.22263,-1.5792 -0.11378,-0.69122 -0.12294,-1.25677 -0.0204,-1.25677 0.21562,0 1.2344,-2.22282 2.24342,-4.89479 0.7074,-1.87324 2.54418,-8.65624 2.38669,-8.81373 -0.047,-0.047 -0.66278,0.20428 -1.36847,0.55831 -1.61823,0.81185 -5.29228,1.99898 -6.84548,2.21187 -1.44346,0.19785 -1.40375,-0.38344 -0.52302,7.65733 0.36381,3.32136 0.66146,6.25177 0.66146,6.51201 0,0.40086 -0.23777,0.47317 -1.55591,0.47317 H 52.6254 l -0.32933,-3.10886 z M 37.87786,405.2026 c -4.900661,-2.62536 -3.849747,-1.81538 -5.93516,-5.30905 -2.92605,-4.86849 -4.2505,-9.38399 -4.44783,-15.16409 -0.14143,-4.14266 0.1182,-6.74632 1.04437,-10.47351 0.29959,-1.20566 0.49928,-2.22672 0.44375,-2.26904 -0.0555,-0.0423 -1.01605,-0.50489 -2.13449,-1.02794 -2.42251,-1.13291 -4.25153,-2.73826 -5.15812,-4.52734 -0.70323,-1.38776 -1.07125,-3.55991 -0.73427,-4.33388 0.11168,-0.25651 0.23678,-0.84516 0.27799,-1.30812 0.15301,-1.71872 2.16141,-4.68384 4.03659,-5.95946 0.67655,-0.46023 1.28962,-0.90418 1.36238,-0.98654 0.30224,-0.34213 4.50359,-1.68749 4.68943,-1.50165 0.0461,0.0461 -0.38045,0.39108 -0.9479,0.7666 -2.25058,1.48936 -4.1407,4.68792 -4.43519,7.50547 -0.4505,4.31012 2.49168,7.84038 8.13358,9.75931 2.55571,0.86926 5.84823,1.46534 8.43245,1.52663 1.16273,0.0276 2.11524,0.12499 2.11668,0.21647 0.003,0.22126 -1.16328,0.67265 -2.7022,1.0454 -1.08715,0.26333 -6.3457,0.21935 -9.5983,-0.0803 -0.79321,-0.0731 -0.79408,-0.0716 -1.27063,2.17583 -0.26229,1.23693 -0.54604,3.92932 -0.63057,5.9831 -0.24654,5.99012 0.69882,10.39542 3.38086,15.75454 1.20515,2.40808 4.23041,6.71424 6.05823,8.6233 0.45282,0.47295 0.72797,0.85614 0.61145,0.85155 -0.11651,-0.005 -1.28341,-0.57488 -2.59309,-1.2673 z m 4.75005,-2.49466 -1.04589,-1.12448 1.12448,1.04588 c 1.04576,0.97266 1.24606,1.20308 1.04589,1.20308 -0.0432,0 -0.54925,-0.50602 -1.12448,-1.12448 z m 15.51146,-4.58606 c 0.0127,-0.30823 0.0754,-0.37092 0.15985,-0.15986 0.0764,0.191 0.067,0.4192 -0.0209,0.50712 -0.0879,0.0879 -0.15045,-0.0683 -0.13896,-0.34726 z m 9.25371,-13.86858 c -0.0243,-0.82986 -1.0989,-3.12599 -1.80808,-3.86335 -0.36046,-0.37477 -0.45844,-0.67667 -0.30055,-0.92604 0.27056,-0.42732 0.31943,-9.21914 0.072,-12.95488 l -0.16761,-2.53073 -2.86053,-0.31807 c -6.06549,-0.67446 -9.94994,-2.61526 -11.4919,-5.74175 -0.38215,-0.77484 -0.51835,-1.60358 -0.52039,-3.16622 -0.002,-1.82618 0.11009,-2.3527 0.81952,-3.83646 1.31514,-2.7506 4.70139,-5.61301 7.94952,-6.71976 l 1.19988,-0.40884 -1.71626,1.81933 c -2.10054,2.22668 -2.87547,4.03509 -2.87707,6.71407 -0.003,4.94014 3.96029,7.93824 11.79782,8.92475 2.42383,0.30509 8.38728,0.22304 11.39883,-0.15683 l 1.05834,-0.13349 -1.48191,0.78551 c -1.91967,1.01756 -5.35383,1.89441 -8.1218,2.07375 l -2.19536,0.14225 0.17881,5.18744 c 0.17921,5.19891 -0.22063,14.05393 -0.68671,15.20814 -0.21706,0.53752 -0.22806,0.5331 -0.24656,-0.0988 z"
           id="path49311"
           sodipodi:nodetypes="sscssssssssssscsssssssssccsccsssssssssssssscsssssscscscsssssssssssscsscsscsssscsscssss" />
      </g>
      <g
         id="g49440"
         transform="matrix(0.59023982,0,0,0.59023982,236.59418,26.678192)"
         style="fill:none">
        <path
           style="fill:none;fill-opacity:1;stroke:#f8fafb;stroke-width:2.64583;stroke-linejoin:bevel;stroke-dasharray:none;stroke-opacity:1;stop-color:#000000"
           id="circle49438"
           sodipodi:type="arc"
           sodipodi:cx="-247.6514"
           sodipodi:cy="94.649658"
           sodipodi:rx="43.005566"
           sodipodi:ry="43.005566"
           sodipodi:start="0.32854152"
           sodipodi:end="2.4814849"
           sodipodi:arc-type="arc"
           d="m -206.94603,108.52596 a 43.005566,43.005566 0 0 1 -33.60838,28.53963 43.005566,43.005566 0 0 1 -41.06821,-16.04483"
           sodipodi:open="true" />
      </g>
    </g>
  </g>
</svg>
